<svg width="28" height="28" viewBox="0 0 28 28" fill="none" xmlns="http://www.w3.org/2000/svg">
<path fill-rule="evenodd" clip-rule="evenodd" d="M14 28C21.732 28 28 21.732 28 14C28 6.26801 21.732 0 14 0C6.26801 0 0 6.26801 0 14C0 21.732 6.26801 28 14 28ZM16.4309 7.50088C17.6458 7.71067 18.8077 8.07696 19.8912 8.57413C19.9006 8.57817 19.9086 8.58492 19.9133 8.59436C21.8331 11.4181 22.7813 14.6035 22.4268 18.2704C22.4255 18.286 22.4174 18.3001 22.4047 18.3096C20.9506 19.3774 19.5421 20.0257 18.153 20.4554C18.1309 20.4621 18.1068 20.454 18.0934 20.4351C17.7724 19.9886 17.4809 19.5177 17.2256 19.0233C17.2109 18.9943 17.2243 18.9592 17.2544 18.9477C17.7175 18.773 18.1577 18.5639 18.5812 18.3163C18.6147 18.2968 18.6167 18.2488 18.5859 18.2259C18.4961 18.1591 18.407 18.089 18.3219 18.0188C18.3058 18.006 18.2844 18.0033 18.2663 18.0121C15.5169 19.2823 12.5049 19.2823 9.72275 18.0121C9.70465 18.004 9.6832 18.0067 9.6678 18.0195C9.58271 18.0896 9.49356 18.1591 9.40445 18.2259C9.37363 18.2488 9.37631 18.2968 9.40981 18.3163C9.8333 18.5592 10.2736 18.773 10.7359 18.9484C10.766 18.9599 10.7801 18.9943 10.7654 19.0233C10.5155 19.5184 10.224 19.9893 9.89697 20.4358C9.88289 20.454 9.85945 20.4621 9.83732 20.4554C8.45496 20.0257 7.04644 19.3774 5.59237 18.3096C5.5803 18.3001 5.57159 18.2853 5.57025 18.2698C5.27408 15.0979 5.87782 11.8863 8.08173 8.59369C8.08706 8.58492 8.09511 8.57817 8.1045 8.57413C9.18869 8.07629 10.3506 7.71 11.5648 7.50088C11.5869 7.49751 11.609 7.50762 11.6204 7.52719C11.7705 7.79296 11.942 8.13363 12.058 8.41222C13.3378 8.2166 14.6378 8.2166 15.9444 8.41222C16.0604 8.13969 16.2259 7.79296 16.3753 7.52719C16.3867 7.50695 16.4088 7.49683 16.4309 7.50088ZM9.65305 14.625C9.65305 15.5695 10.3432 16.3385 11.1809 16.3385C12.0318 16.3385 12.7086 15.5695 12.7086 14.625C12.722 13.6874 12.0385 12.9116 11.1809 12.9116C10.3298 12.9116 9.65305 13.6806 9.65305 14.625ZM15.3018 14.625C15.3018 15.5695 15.992 16.3385 16.8296 16.3385C17.6873 16.3385 18.3574 15.5695 18.3574 14.625C18.3708 13.6874 17.6873 12.9116 16.8296 12.9116C15.9786 12.9116 15.3018 13.6806 15.3018 14.625Z" fill="currentColor"/>
</svg>
