<svg version="1.2" baseProfile="tiny-ps" xmlns="http://www.w3.org/2000/svg" viewBox="0 0 450 450" width="75" height="75">
    <path d="M225 450C100.57 450 0 349.43 0 225C0 100.57 100.57 0 225 0C349.43 0 450 100.57 450 225C450 349.43 349.43 450 225 450Z" fill="#f0f0f0"/>
    <path d="M222.17 292.17L224.96 294.96L352.92 219.32L224.96 7L222.17 16.5L222.17 292.17Z" fill="#343434"/>
    <path d="M224.96 294.96L224.96 7L97 219.32L224.96 294.96Z" fill="#8c8c8c"/>
    <path d="M223.39 419.31L224.96 423.91L353 243.59L224.96 319.19L223.39 321.11L223.39 419.31Z" fill="#3c3c3b"/>
    <path d="M97 243.59L224.96 423.9L224.96 319.18L97 243.59Z" fill="#8c8c8c"/>
    <path d="M224.96 161.16L224.96 294.96L352.92 219.32L224.96 161.16Z" fill="#141414"/>
    <path d="M224.96 161.16L97 219.32L224.96 294.96L224.96 161.16Z" fill="#393939"/>
</svg>