<svg width="24" height="24" viewBox="0 0 24 24" fill="none" xmlns="http://www.w3.org/2000/svg">
<path d="M23.4811 10.1222L16.2716 4.65449C15.6492 4.1819 14.5786 4.1819 13.9549 4.65449L11.9976 6.12709L10.0414 4.65449C9.41778 4.1819 8.35079 4.1819 7.72838 4.65449L0.515225 10.1222C0.18514 10.3731 0 10.7276 0 11.0954C0 11.4645 0.18514 11.8214 0.515225 12.0674L4.74665 15.2672L5.22412 15.6277L7.20706 17.1295L7.68088 17.4876L10.6261 19.7142C10.9233 19.9432 11.3082 20.0637 11.7138 20.0759C11.8075 20.0844 11.9026 20.0893 12.0012 20.0893C12.1011 20.0893 12.1985 20.0844 12.2935 20.0759C12.6979 20.0637 13.078 19.9419 13.3691 19.7154L16.3142 17.4876L16.7893 17.1295L18.7734 15.6289L19.2509 15.2684L23.4799 12.0686C23.8088 11.8226 24 11.4657 24 11.0966C24.0012 10.7276 23.81 10.3731 23.4811 10.1222ZM13.3825 15.2659L12 16.311L10.6151 15.2659L10.1413 14.9054L8.15956 13.406L7.68209 13.0455L5.73081 11.568C5.5408 11.4267 5.43605 11.244 5.43605 11.0516C5.43605 10.8628 5.5408 10.6801 5.72716 10.5376L8.03167 8.78238C8.44701 8.46448 9.23142 8.46448 9.65164 8.78238L10.6699 9.55827C10.9026 9.73488 11.1924 9.84938 11.5079 9.89566L11.4823 9.89688C11.4823 9.89688 11.9038 9.97361 12.5469 9.87008C12.5713 9.86643 12.5944 9.86277 12.6188 9.8579C12.6273 9.85668 12.6346 9.85547 12.6431 9.85425H12.6358C12.8904 9.80309 13.1291 9.70687 13.3252 9.55827L14.3471 8.78238C14.7637 8.46448 15.5481 8.46448 15.9635 8.78604L18.268 10.5376C18.4592 10.6801 18.5627 10.8628 18.5627 11.0516C18.5627 11.2428 18.4592 11.4255 18.268 11.568L16.3167 13.0455L15.8392 13.406L13.8563 14.9078L13.3825 15.2659ZM13.9086 18.4292L12.7259 19.4681L11.2253 19.4693L10.173 18.4316L12.0085 17.0321L12.0304 17.0479L13.9086 18.4292ZM13.5298 19.227L13.5822 19.1843C13.5664 19.2014 13.5493 19.2172 13.5323 19.233C13.5311 19.2318 13.5298 19.2294 13.5298 19.227ZM12.7174 9.23671L11.2156 9.23793L10.179 8.23549L11.9951 6.85181L13.8343 8.27325L12.7174 9.23671ZM0.861145 11.6119C0.676005 11.4693 0.570036 11.2866 0.570036 11.0954C0.570036 10.9066 0.674787 10.7239 0.864799 10.5814L8.0743 5.11369C8.28258 4.95291 8.58222 4.86156 8.88916 4.86156C9.19245 4.86156 9.48721 4.95169 9.69549 5.11369L11.5213 6.48641L11.5237 6.48762L9.46041 8.0601C8.86723 7.8847 8.14982 7.97362 7.68575 8.32806L5.38002 10.0771C5.05116 10.3293 4.85993 10.6837 4.85993 11.0516C4.85993 11.4206 5.05116 11.7775 5.38002 12.0272L7.20463 13.4084L5.22168 14.9091L0.861145 11.6119ZM5.69793 15.2696L7.68209 13.769L9.66504 15.2696L7.68088 16.7714L5.69793 15.2696ZM10.1389 15.6277L11.5237 16.674L11.525 16.6752L9.54933 18.1819L8.15591 17.1283L10.1389 15.6277ZM14.4933 18.1478L12.4836 16.6679L13.8587 15.6277L15.8429 17.1271L14.4933 18.1478ZM16.3155 16.769L14.3325 15.2696L16.3167 13.7678L18.3008 15.2672L16.3155 16.769ZM23.1352 11.6119L18.7771 14.9066L16.7929 13.4048L18.6163 12.026C18.9452 11.7763 19.1364 11.4206 19.1364 11.0503C19.1364 10.6825 18.9501 10.3281 18.62 10.0759L16.3155 8.32684C16.0037 8.08811 15.592 7.95778 15.1547 7.95778C14.9269 7.95778 14.7077 7.99432 14.5043 8.06253L12.4689 6.49006L12.475 6.48519L14.3009 5.11125C14.7199 4.79579 15.5043 4.79579 15.9257 5.11125L23.1352 10.579C23.3216 10.7215 23.4239 10.9042 23.4239 11.093C23.4239 11.2866 23.3216 11.4693 23.1352 11.6119Z" fill="#B068D3"/>
</svg>
