<svg width="52" height="52" viewBox="0 0 52 52" fill="none" xmlns="http://www.w3.org/2000/svg">
  <path d="M0 7C0 3.13401 3.13401 0 7 0H45C48.866 0 52 3.13401 52 7V45C52 48.866 48.866 52 45 52H7C3.13401 52 0 48.866 0 45V7Z" fill="#363238"/>
  <path d="M36.9674 31.5055L33.8684 30.2196L28.2758 32.5504C27.5495 32.8719 26.7505 33.0059 26 33.0059C25.2253 33.0059 24.4505 32.8451 23.7242 32.5504L18.1316 30.2196L15.0326 31.5055C14.5242 31.7199 14.5 32.2289 14.5 32.3896C14.5 32.5504 14.5484 33.0594 15.0326 33.2738L24.3295 37.1584C25.3947 37.6139 26.6053 37.6139 27.6705 37.1584L36.9674 33.2738C37.4758 33.0594 37.5 32.5504 37.5 32.3896C37.5 32.2289 37.4516 31.7199 36.9674 31.5055Z" fill="#DFBD68"/>
  <path d="M36.9674 25.1025L33.8684 23.8166L28.2758 26.1473C27.5495 26.4689 26.7505 26.6028 26 26.6028C25.2253 26.6028 24.4505 26.442 23.7242 26.1473L18.1316 23.8166L15.0326 25.1025C14.5242 25.3168 14.5 25.8259 14.5 25.9866C14.5 26.1473 14.5484 26.6564 15.0326 26.8707L24.3295 30.7554C25.3947 31.2108 26.6053 31.2108 27.6705 30.7554L36.9674 26.8707C37.4758 26.6564 37.5 26.1473 37.5 25.9866C37.5 25.8259 37.4516 25.3168 36.9674 25.1025Z" fill="#DFBD68"/>
  <path d="M15.0326 20.4945L24.3295 24.3792C25.3947 24.8346 26.6053 24.8346 27.6705 24.3792L36.9674 20.4945C37.4758 20.2801 37.5 19.7443 37.5 19.6104C37.5 19.4496 37.4516 18.9406 36.9674 18.7263L27.6705 14.8416C26.6053 14.3861 25.3947 14.3861 24.3295 14.8416L15.0326 18.7263C14.5242 18.9406 14.5 19.4496 14.5 19.6104C14.5 19.7443 14.5484 20.2801 15.0326 20.4945Z" fill="#DFBD68"/>
</svg>
