<svg width="28" height="28" viewBox="0 0 28 28" fill="none" xmlns="http://www.w3.org/2000/svg">
<g clip-path="url(#clip0)">
<path d="M15.7937 13.799C15.7937 18.1982 12.2581 21.7644 7.89698 21.7644C3.53585 21.7644 0 18.1974 0 13.799C0 9.40063 3.53558 5.83334 7.89698 5.83334C12.2584 5.83334 15.7937 9.39982 15.7937 13.799Z" fill="currentColor"/>
<path d="M24.4566 13.7989C24.4566 17.9398 22.6888 21.298 20.5081 21.298C18.3274 21.298 16.5596 17.9398 16.5596 13.7989C16.5596 9.65807 18.3271 6.2999 20.5078 6.2999C22.6885 6.2999 24.4563 9.657 24.4563 13.7989" fill="currentColor"/>
<path d="M28 13.799C28 17.5083 27.3784 20.517 26.6113 20.517C25.8443 20.517 25.2229 17.5091 25.2229 13.799C25.2229 10.089 25.8445 7.08109 26.6113 7.08109C27.3781 7.08109 28 10.0888 28 13.799Z" fill="currentColor"/>
</g>
<defs>
<clipPath id="clip0">
<rect width="28" height="28" fill="white"/>
</clipPath>
</defs>
</svg>
