<svg width="32" height="32" viewBox="0 0 32 32" fill="none" xmlns="http://www.w3.org/2000/svg">
<path d="M28.5667 3.05469L17.6687 11.1407L19.6929 6.37005L28.5667 3.05469Z" fill="#E2761B"/>
<path fill-rule="evenodd" clip-rule="evenodd" d="M28.6148 3.02859C28.6278 3.05253 28.6212 3.08241 28.5993 3.09865L17.7013 11.1846C17.6815 11.1993 17.6543 11.1989 17.6349 11.1837C17.6155 11.1684 17.6087 11.142 17.6184 11.1193L19.6426 6.34871C19.6485 6.33488 19.6597 6.32408 19.6738 6.31883L28.5476 3.00347C28.5731 2.99393 28.6018 3.00464 28.6148 3.02859ZM19.7341 6.41309L17.7977 10.9769L28.2232 3.24145L19.7341 6.41309Z" fill="#E2761B"/>
<path d="M3.43335 3.05469L14.2329 11.2173L12.3071 6.37005L3.43335 3.05469Z" fill="#E4761B"/>
<path fill-rule="evenodd" clip-rule="evenodd" d="M3.38543 3.02837C3.39851 3.00457 3.42708 2.99396 3.45252 3.00347L12.3263 6.31883C12.3408 6.32423 12.3523 6.33551 12.358 6.34987L14.2837 11.1971C14.2928 11.2199 14.2856 11.2459 14.2661 11.2608C14.2465 11.2757 14.2195 11.2757 14.1999 11.2609L3.40039 3.09836C3.37872 3.08198 3.37235 3.05218 3.38543 3.02837ZM3.7656 3.23724L14.1098 11.0557L12.2653 6.41283L3.7656 3.23724Z" fill="#E4761B"/>
<path d="M24.6496 21.7979L21.75 26.2402L27.954 27.9471L29.7266 21.8963L24.6496 21.7979Z" fill="#E4761B"/>
<path fill-rule="evenodd" clip-rule="evenodd" d="M24.6038 21.768C24.6141 21.7522 24.6318 21.7428 24.6507 21.7432L29.7276 21.8416C29.7447 21.842 29.7606 21.8502 29.7707 21.864C29.7808 21.8777 29.7839 21.8954 29.7791 21.9117L28.0065 27.9625C27.9981 27.9912 27.9683 28.0078 27.9395 27.9999L21.7355 26.293C21.7187 26.2883 21.705 26.2759 21.6989 26.2596C21.6927 26.2433 21.6947 26.225 21.7042 26.2103L24.6038 21.768ZM24.6788 21.8532L21.8368 26.2074L27.9166 27.8801L29.654 21.9497L24.6788 21.8532Z" fill="#E4761B"/>
<path d="M2.28442 21.8963L4.04605 27.9471L10.25 26.2402L7.36141 21.7979L2.28442 21.8963Z" fill="#E4761B"/>
<path fill-rule="evenodd" clip-rule="evenodd" d="M7.36037 21.7432C7.37926 21.7428 7.397 21.7522 7.40729 21.768L10.2959 26.2104C10.3054 26.225 10.3074 26.2433 10.3012 26.2597C10.295 26.276 10.2814 26.2884 10.2646 26.293L4.06058 27.9999C4.03176 28.0078 4.0019 27.9911 3.99354 27.9624L2.23192 21.9116C2.22716 21.8953 2.23028 21.8777 2.24037 21.8639C2.25046 21.8502 2.26636 21.842 2.28338 21.8416L7.36037 21.7432ZM2.35695 21.9497L4.08353 27.8801L10.1634 26.2073L7.33212 21.8532L2.35695 21.9497Z" fill="#E4761B"/>
<path d="M9.91093 14.2919L8.18213 16.907L14.3314 17.1806L14.1235 10.5608L9.91093 14.2919Z" fill="#E4761B"/>
<path fill-rule="evenodd" clip-rule="evenodd" d="M14.1452 10.5106C14.1647 10.519 14.1775 10.5379 14.1782 10.5591L14.3861 17.1789C14.3866 17.1941 14.3807 17.2088 14.3699 17.2195C14.359 17.2302 14.3442 17.2359 14.329 17.2352L8.17972 16.9617C8.16004 16.9608 8.14234 16.9494 8.1334 16.9319C8.12446 16.9143 8.12565 16.8933 8.13651 16.8769L9.86531 14.2618C9.86795 14.2578 9.8711 14.2542 9.87468 14.251L14.0873 10.5199C14.1031 10.5058 14.1257 10.5022 14.1452 10.5106ZM9.95262 14.3281L8.28103 16.8567L14.2749 17.1233L14.0725 10.6791L9.95262 14.3281Z" fill="#E4761B"/>
<path d="M22.0892 14.2919L17.8109 10.4841L17.6687 17.1805L23.818 16.907L22.0892 14.2919Z" fill="#E4761B"/>
<path fill-rule="evenodd" clip-rule="evenodd" d="M17.7891 10.434C17.8087 10.4255 17.8314 10.4291 17.8473 10.4433L22.1256 14.251C22.1291 14.2542 22.1322 14.2578 22.1348 14.2617L23.8636 16.8768C23.8745 16.8932 23.8757 16.9142 23.8667 16.9318C23.8578 16.9494 23.8401 16.9608 23.8204 16.9616L17.6712 17.2352C17.656 17.2358 17.6413 17.2302 17.6305 17.2197C17.6197 17.2091 17.6137 17.1945 17.614 17.1794L17.7563 10.483C17.7567 10.4617 17.7695 10.4425 17.7891 10.434ZM17.8631 10.6038L17.7247 17.1233L23.7191 16.8566L22.0475 14.328L17.8631 10.6038Z" fill="#E4761B"/>
<path d="M10.25 26.2403L13.9593 24.4349L10.7643 21.9402L10.25 26.2403Z" fill="#E4761B"/>
<path fill-rule="evenodd" clip-rule="evenodd" d="M10.7433 21.8897C10.7615 21.8821 10.7824 21.8849 10.798 21.8971L13.993 24.3918C14.0078 24.4034 14.0157 24.4219 14.0137 24.4407C14.0117 24.4594 14.0002 24.4759 13.9832 24.4841L10.274 26.2895C10.256 26.2983 10.2346 26.2965 10.2183 26.2849C10.202 26.2733 10.1933 26.2537 10.1957 26.2338L10.71 21.9337C10.7123 21.9141 10.725 21.8973 10.7433 21.8897ZM10.8071 22.043L10.3163 26.1472L13.8565 24.4241L10.8071 22.043Z" fill="#E4761B"/>
<path d="M18.0408 24.4349L21.75 26.2403L21.2358 21.9402L18.0408 24.4349Z" fill="#E4761B"/>
<path fill-rule="evenodd" clip-rule="evenodd" d="M21.2566 21.8897C21.2748 21.8973 21.2875 21.9141 21.2899 21.9337L21.8041 26.2338C21.8065 26.2537 21.7978 26.2733 21.7815 26.2849C21.7652 26.2965 21.7439 26.2983 21.7259 26.2895L18.0166 24.4841C17.9996 24.4759 17.9881 24.4594 17.9861 24.4407C17.9842 24.4219 17.992 24.4034 18.0069 24.3918L21.2019 21.8971C21.2174 21.8849 21.2383 21.8821 21.2566 21.8897ZM18.1433 24.4241L21.6836 26.1472L21.1927 22.043L18.1433 24.4241Z" fill="#E4761B"/>
<path d="M21.75 26.2402L18.0408 24.4348L18.3362 26.8529L18.3034 27.8705L21.75 26.2402Z" fill="#D7C1B3"/>
<path fill-rule="evenodd" clip-rule="evenodd" d="M18.009 24.3903C18.0253 24.3787 18.0467 24.3769 18.0647 24.3856L21.774 26.191C21.7929 26.2002 21.8049 26.2195 21.8048 26.2405C21.8046 26.2616 21.7925 26.2807 21.7734 26.2897L18.3268 27.92C18.3096 27.9282 18.2893 27.9268 18.2734 27.9163C18.2574 27.9058 18.2481 27.8878 18.2487 27.8688L18.2814 26.8554L17.9865 24.4415C17.9841 24.4216 17.9927 24.4019 18.009 24.3903ZM18.1073 24.5281L18.3905 26.8463C18.3909 26.8491 18.391 26.8519 18.3909 26.8547L18.361 27.7828L21.6236 26.2395L18.1073 24.5281Z" fill="#D7C1B3"/>
<path d="M10.2502 26.2402L13.6969 27.8705L13.675 26.8529L13.9595 24.4348L10.2502 26.2402Z" fill="#D7C1B3"/>
<path fill-rule="evenodd" clip-rule="evenodd" d="M13.991 24.3902C14.0073 24.4018 14.016 24.4214 14.0136 24.4412L13.7296 26.8556L13.7514 27.8694C13.7518 27.8883 13.7424 27.9061 13.7264 27.9165C13.7105 27.9268 13.6904 27.9281 13.6733 27.92L10.2266 26.2897C10.2076 26.2807 10.1954 26.2616 10.1953 26.2405C10.1952 26.2195 10.2072 26.2002 10.2261 26.191L13.9353 24.3856C13.9533 24.3769 13.9747 24.3786 13.991 24.3902ZM10.3765 26.2395L13.6401 27.7833L13.6201 26.8541C13.62 26.8516 13.6202 26.8491 13.6205 26.8466L13.8933 24.5278L10.3765 26.2395Z" fill="#D7C1B3"/>
<path d="M13.7623 20.3428L10.6768 19.4347L12.8542 18.439L13.7623 20.3428Z" fill="#233447"/>
<path fill-rule="evenodd" clip-rule="evenodd" d="M12.8314 18.389C12.8586 18.3766 12.8907 18.3882 12.9036 18.4152L13.8117 20.3191C13.821 20.3386 13.818 20.3617 13.804 20.3781C13.79 20.3945 13.7676 20.4012 13.7469 20.3951L10.6613 19.4869C10.6394 19.4805 10.6238 19.4611 10.6222 19.4384C10.6206 19.4156 10.6333 19.3942 10.654 19.3847L12.8314 18.389ZM10.8327 19.4233L13.6602 20.2555L12.828 18.5109L10.8327 19.4233Z" fill="#233447"/>
<path d="M18.2375 20.3428L19.1457 18.439L21.3341 19.4347L18.2375 20.3428Z" fill="#233447"/>
<path fill-rule="evenodd" clip-rule="evenodd" d="M19.0964 18.4152C19.1092 18.3883 19.1412 18.3766 19.1684 18.389L21.3568 19.3847C21.3776 19.3941 21.3903 19.4155 21.3887 19.4383C21.387 19.4611 21.3714 19.4805 21.3495 19.487L18.253 20.3951C18.2323 20.4012 18.2099 20.3945 18.1959 20.3781C18.1819 20.3617 18.1789 20.3385 18.1882 20.3191L19.0964 18.4152ZM19.172 18.5108L18.3397 20.2557L21.1776 19.4233L19.172 18.5108Z" fill="#233447"/>
<path d="M10.2502 26.2402L10.7863 21.7979L7.36157 21.8963L10.2502 26.2402Z" fill="#CD6116"/>
<path fill-rule="evenodd" clip-rule="evenodd" d="M10.8268 21.761C10.8375 21.7728 10.8426 21.7886 10.8407 21.8044L10.3045 26.2468C10.3018 26.2695 10.2852 26.2882 10.2629 26.2935C10.2406 26.2988 10.2174 26.2896 10.2047 26.2705L7.31604 21.9266C7.30503 21.9101 7.30387 21.8889 7.31301 21.8712C7.32215 21.8535 7.34015 21.8422 7.36002 21.8417L10.7848 21.7432C10.8007 21.7427 10.816 21.7492 10.8268 21.761ZM7.46177 21.9482L10.2137 26.0865L10.7244 21.8544L7.46177 21.9482Z" fill="#CD6116"/>
<path d="M21.2139 21.7979L21.75 26.2402L24.6496 21.8963L21.2139 21.7979Z" fill="#CD6116"/>
<path fill-rule="evenodd" clip-rule="evenodd" d="M21.1735 21.761C21.1842 21.7492 21.1995 21.7427 21.2155 21.7432L24.6512 21.8417C24.6711 21.8422 24.6891 21.8536 24.6982 21.8712C24.7073 21.8889 24.7062 21.9102 24.6951 21.9267L21.7955 26.2706C21.7828 26.2896 21.7596 26.2988 21.7373 26.2934C21.7151 26.2881 21.6985 26.2695 21.6957 26.2468L21.1596 21.8044C21.1577 21.7886 21.1627 21.7728 21.1735 21.761ZM21.2758 21.8544L21.7866 26.0869L24.5492 21.9482L21.2758 21.8544Z" fill="#CD6116"/>
<path d="M23.818 16.907L17.6687 17.1805L18.2377 20.3427L19.1458 18.4388L21.3342 19.4345L23.818 16.907Z" fill="#CD6116"/>
<path fill-rule="evenodd" clip-rule="evenodd" d="M23.868 16.8847C23.8771 16.9053 23.8728 16.9293 23.857 16.9453L21.3732 19.4729C21.3571 19.4893 21.3325 19.4939 21.3116 19.4843L19.1721 18.5109L18.2871 20.3663C18.2768 20.3877 18.254 20.4001 18.2304 20.3969C18.2069 20.3938 18.1881 20.3758 18.1839 20.3524L17.6149 17.1902C17.6121 17.1747 17.6161 17.1587 17.626 17.1464C17.6358 17.1341 17.6505 17.1266 17.6663 17.1259L23.8156 16.8523C23.838 16.8514 23.8588 16.8642 23.868 16.8847ZM17.7336 17.2324L18.2615 20.1658L19.0965 18.4153C19.1093 18.3884 19.1414 18.3767 19.1685 18.3891L21.322 19.3689L23.6815 16.9678L17.7336 17.2324Z" fill="#CD6116"/>
<path d="M10.6769 19.4345L12.8543 18.4388L13.7624 20.3427L14.3314 17.1805L8.18213 16.907L10.6769 19.4345Z" fill="#CD6116"/>
<path fill-rule="evenodd" clip-rule="evenodd" d="M8.13216 16.8848C8.1413 16.8642 8.1621 16.8513 8.18458 16.8523L14.3339 17.1259C14.3496 17.1266 14.3643 17.1341 14.3742 17.1464C14.384 17.1587 14.3881 17.1747 14.3853 17.1902L13.8163 20.3524C13.8121 20.3758 13.7933 20.3938 13.7697 20.3969C13.7462 20.4001 13.7233 20.3877 13.7131 20.3663L12.8281 18.511L10.6996 19.4843C10.6787 19.4939 10.6541 19.4893 10.6379 19.473L8.14321 16.9454C8.12741 16.9294 8.12302 16.9054 8.13216 16.8848ZM8.31909 16.9679L10.6889 19.3689L12.8315 18.3891C12.8587 18.3767 12.8908 18.3883 12.9037 18.4153L13.7387 20.1658L14.2665 17.2324L8.31909 16.9679Z" fill="#CD6116"/>
<path d="M8.18213 16.907L10.7644 21.9402L10.6769 19.4345L8.18213 16.907Z" fill="#E4751F"/>
<path fill-rule="evenodd" clip-rule="evenodd" d="M8.15008 16.8627C8.17196 16.8469 8.20212 16.8494 8.22109 16.8686L10.7158 19.3961C10.7255 19.4059 10.7311 19.4189 10.7316 19.4326L10.8191 21.9383C10.82 21.9639 10.803 21.9867 10.7782 21.9932C10.7534 21.9996 10.7274 21.988 10.7157 21.9652L8.13348 16.932C8.12115 16.9079 8.1282 16.8785 8.15008 16.8627ZM8.39341 17.1989L10.7012 21.6971L10.6229 19.4578L8.39341 17.1989Z" fill="#E4751F"/>
<path d="M21.3341 19.4345L21.2356 21.9402L23.8179 16.907L21.3341 19.4345Z" fill="#E4751F"/>
<path fill-rule="evenodd" clip-rule="evenodd" d="M23.8499 16.8626C23.8718 16.8785 23.8789 16.9079 23.8666 16.932L21.2843 21.9652C21.2726 21.988 21.2466 21.9997 21.2217 21.9931C21.1969 21.9866 21.1799 21.9637 21.181 21.9381L21.2794 19.4324C21.28 19.4188 21.2855 19.4059 21.2951 19.3962L23.7789 16.8687C23.7978 16.8494 23.828 16.8468 23.8499 16.8626ZM21.3879 19.4578L21.3 21.6949L23.6054 17.2013L21.3879 19.4578Z" fill="#E4751F"/>
<path d="M14.3314 17.1807L13.7625 20.3428L14.4846 24.074L14.6378 19.1611L14.3314 17.1807Z" fill="#E4751F"/>
<path fill-rule="evenodd" clip-rule="evenodd" d="M14.3321 17.1257C14.3588 17.1261 14.3814 17.1457 14.3855 17.1721L14.6919 19.1525C14.6924 19.1559 14.6926 19.1592 14.6925 19.1626L14.5393 24.0755C14.5384 24.1033 14.5168 24.1261 14.489 24.1283C14.4612 24.1305 14.4362 24.1115 14.4309 24.0842L13.7088 20.353C13.7075 20.3464 13.7074 20.3396 13.7086 20.3329L14.2776 17.1708C14.2823 17.1444 14.3054 17.1254 14.3321 17.1257ZM13.8181 20.3422L14.4452 23.5822L14.583 19.1643L14.3274 17.512L13.8181 20.3422Z" fill="#E4751F"/>
<path d="M17.6687 17.1807L17.3733 19.1502L17.5155 24.074L18.2377 20.3428L17.6687 17.1807Z" fill="#E4751F"/>
<path fill-rule="evenodd" clip-rule="evenodd" d="M17.6679 17.1257C17.6947 17.1253 17.7178 17.1444 17.7226 17.1708L18.2916 20.3329C18.2928 20.3396 18.2927 20.3464 18.2914 20.353L17.5693 24.0842C17.564 24.1115 17.5389 24.1305 17.5111 24.1283C17.4833 24.126 17.4617 24.1032 17.4609 24.0753L17.3186 19.1515C17.3185 19.1483 17.3187 19.1451 17.3192 19.1418L17.6146 17.1723C17.6186 17.1458 17.6412 17.1261 17.6679 17.1257ZM17.6736 17.5166L17.4281 19.1533L17.5559 23.5772L18.1821 20.3422L17.6736 17.5166Z" fill="#E4751F"/>
<path d="M18.2375 20.3427L17.5154 24.0739L18.0406 24.435L21.2356 21.9402L21.3341 19.4346L18.2375 20.3427Z" fill="#F6851B"/>
<path fill-rule="evenodd" clip-rule="evenodd" d="M21.3677 19.3915C21.3816 19.4023 21.3894 19.4191 21.3887 19.4367L21.2903 21.9424C21.2896 21.9585 21.282 21.9735 21.2693 21.9834L18.0743 24.4781C18.0555 24.4928 18.0293 24.4936 18.0096 24.4801L17.4844 24.119C17.4665 24.1067 17.4576 24.0849 17.4617 24.0635L18.1838 20.3324C18.1877 20.3123 18.2025 20.296 18.2222 20.2903L21.3187 19.3821C21.3356 19.3771 21.3538 19.3806 21.3677 19.3915ZM18.2849 20.3859L17.5759 24.0491L18.0386 24.3672L21.1819 21.9128L21.2764 19.5085L18.2849 20.3859Z" fill="#F6851B"/>
<path d="M10.6768 19.4346L10.7643 21.9402L13.9593 24.435L14.4845 24.0739L13.7623 20.3427L10.6768 19.4346Z" fill="#F6851B"/>
<path fill-rule="evenodd" clip-rule="evenodd" d="M10.6432 19.3914C10.6571 19.3806 10.6754 19.3771 10.6922 19.3821L13.7778 20.2903C13.7974 20.2961 13.8122 20.3123 13.8161 20.3324L14.5382 24.0635C14.5424 24.0849 14.5334 24.1067 14.5155 24.119L13.9903 24.4801C13.9706 24.4936 13.9445 24.4928 13.9256 24.4781L10.7306 21.9834C10.7179 21.9734 10.7102 21.9583 10.7096 21.9422L10.6221 19.4365C10.6215 19.4189 10.6294 19.4021 10.6432 19.3914ZM10.7341 19.5085L10.8181 21.9128L13.9614 24.3672L14.424 24.0491L13.715 20.3858L10.7341 19.5085Z" fill="#F6851B"/>
<path d="M18.3034 27.8706L18.3362 26.853L18.0627 26.6123H13.9376L13.675 26.853L13.6969 27.8706L10.2502 26.2402L11.4538 27.225L13.9048 28.921H18.0955L20.5465 27.225L21.75 26.2402L18.3034 27.8706Z" fill="#C0AD9E"/>
<path fill-rule="evenodd" clip-rule="evenodd" d="M10.2038 26.211C10.2186 26.1877 10.2484 26.179 10.2734 26.1908L13.6401 27.7833L13.6201 26.8542C13.6198 26.8384 13.6262 26.8233 13.6378 26.8127L13.9004 26.572C13.9105 26.5627 13.9237 26.5576 13.9374 26.5576H18.0625C18.0758 26.5576 18.0886 26.5624 18.0986 26.5712L18.3721 26.8119C18.3844 26.8227 18.3912 26.8384 18.3907 26.8548L18.3607 27.7828L21.7264 26.1908C21.7514 26.179 21.7813 26.1877 21.7961 26.211C21.8108 26.2344 21.8059 26.2651 21.7845 26.2826L20.5809 27.2674C20.5797 27.2683 20.5786 27.2692 20.5774 27.27L18.1264 28.966C18.1173 28.9723 18.1064 28.9757 18.0953 28.9757H13.9046C13.8935 28.9757 13.8826 28.9723 13.8734 28.966L11.4225 27.27C11.4213 27.2692 11.4201 27.2683 11.419 27.2674L10.2154 26.2826C10.194 26.2651 10.189 26.2344 10.2038 26.211ZM10.6302 26.4806L11.4866 27.1813L13.9217 28.8663H18.0782L20.5133 27.1813L21.3697 26.4806L18.3266 27.92C18.3093 27.9282 18.2891 27.9268 18.2732 27.9163C18.2572 27.9059 18.2479 27.8879 18.2485 27.8688L18.2805 26.877L18.0418 26.667H13.9587L13.73 26.8766L13.7514 27.8694C13.7518 27.8884 13.7424 27.9062 13.7264 27.9165C13.7105 27.9268 13.6904 27.9281 13.6733 27.92L10.6302 26.4806Z" fill="#C0AD9E"/>
<path d="M18.0406 24.4351L17.5154 24.074H14.4845L13.9593 24.4351L13.6748 26.8532L13.9374 26.6125H18.0625L18.336 26.8532L18.0406 24.4351Z" fill="#161616"/>
<path fill-rule="evenodd" clip-rule="evenodd" d="M14.4535 24.0287C14.4626 24.0224 14.4735 24.019 14.4845 24.019H17.5154C17.5265 24.019 17.5373 24.0224 17.5464 24.0287L18.0716 24.3897C18.0845 24.3986 18.093 24.4126 18.0949 24.4282L18.3903 26.8463C18.3931 26.8689 18.3816 26.8908 18.3615 26.9014C18.3415 26.9119 18.3169 26.909 18.2999 26.894L18.0418 26.667H13.9587L13.7118 26.8933C13.6949 26.9087 13.6703 26.9121 13.6499 26.9017C13.6296 26.8912 13.6178 26.8693 13.6205 26.8466L13.905 24.4284C13.9068 24.4128 13.9153 24.3987 13.9283 24.3897L14.4535 24.0287ZM14.5015 24.1285L14.0108 24.4659L13.7464 26.7132L13.9005 26.5719C13.9106 26.5627 13.9237 26.5575 13.9374 26.5575H18.0625C18.0758 26.5575 18.0886 26.5624 18.0986 26.5712L18.2643 26.717L17.9893 24.4659L17.4984 24.1285H14.5015Z" fill="#161616"/>
<path d="M29.0263 11.6659L29.9454 7.20162L28.5668 3.05469L18.0408 10.8671L22.0892 14.2919L27.8118 15.966L29.0701 14.4888L28.523 14.0949L29.3983 13.2962L28.7309 12.771L29.6062 12.1035L29.0263 11.6659Z" fill="#763D16"/>
<path fill-rule="evenodd" clip-rule="evenodd" d="M28.583 3.00254C28.5997 3.00782 28.6129 3.0208 28.6185 3.03745L29.9971 7.18438C30.0001 7.1935 30.0007 7.20326 29.9988 7.21267L29.0866 11.643L29.639 12.0599C29.6526 12.0702 29.6607 12.0863 29.6607 12.1034C29.6608 12.1205 29.6528 12.1367 29.6392 12.1471L28.82 12.7717L29.4319 13.2532C29.4446 13.2632 29.4522 13.2782 29.4528 13.2942C29.4534 13.3103 29.4469 13.3258 29.435 13.3366L28.6094 14.0899L29.1018 14.4445C29.1142 14.4534 29.1223 14.4671 29.1242 14.4823C29.126 14.4975 29.1214 14.5127 29.1115 14.5243L27.8532 16.0015C27.8392 16.0179 27.8169 16.0246 27.7962 16.0185L22.0736 14.3444C22.0663 14.3423 22.0595 14.3386 22.0537 14.3337L18.0052 10.9089C17.9925 10.8981 17.9853 10.8821 17.9859 10.8654C17.9864 10.8487 17.9945 10.8332 18.0079 10.8232L28.5339 3.01078C28.548 3.00032 28.5663 2.99726 28.583 3.00254ZM18.1286 10.8699L22.1155 14.2427L27.7929 15.9035L28.9897 14.4986L28.4908 14.1394C28.4774 14.1297 28.4691 14.1146 28.4682 14.0981C28.4672 14.0817 28.4737 14.0657 28.4859 14.0545L29.3136 13.2993L28.6968 12.814C28.6835 12.8035 28.6758 12.7875 28.676 12.7706C28.6761 12.7537 28.684 12.7378 28.6975 12.7275L29.5155 12.1038L28.9931 11.7096C28.9763 11.6968 28.9682 11.6755 28.9725 11.6549L29.8887 7.20498L28.5385 3.14368L18.1286 10.8699Z" fill="#763D16"/>
<path d="M2.05469 7.20162L2.98474 11.6659L2.39388 12.1035L3.26922 12.771L2.60178 13.2962L3.47712 14.0949L2.93003 14.4888L4.18833 15.966L9.91088 14.2919L13.9593 10.8671L3.43335 3.05469L2.05469 7.20162Z" fill="#763D16"/>
<path fill-rule="evenodd" clip-rule="evenodd" d="M3.41691 3.00254C3.43364 2.99726 3.45189 3.00032 3.46598 3.01078L13.992 10.8232C14.0054 10.8332 14.0135 10.8487 14.014 10.8654C14.0146 10.8821 14.0074 10.8981 13.9947 10.9089L9.94624 14.3337C9.9404 14.3386 9.9336 14.3423 9.92626 14.3444L4.20372 16.0185C4.18302 16.0246 4.16069 16.0179 4.14671 16.0015L2.8884 14.5243C2.87849 14.5127 2.8739 14.4975 2.87574 14.4823C2.87758 14.4671 2.88568 14.4534 2.89808 14.4445L3.39048 14.0899L2.56492 13.3366C2.55305 13.3258 2.54654 13.3103 2.54713 13.2942C2.54771 13.2782 2.55533 13.2632 2.56797 13.2532L3.17991 12.7717L2.36073 12.1471C2.34705 12.1366 2.33908 12.1204 2.3392 12.1032C2.33932 12.086 2.34752 12.0698 2.36134 12.0596L2.92406 11.6428L2.00115 7.2128C1.99918 7.20335 1.99975 7.19354 2.00279 7.18438L3.38146 3.03745C3.38699 3.0208 3.40018 3.00782 3.41691 3.00254ZM3.46145 3.14368L2.11127 7.20491L3.03832 11.6547C3.04267 11.6756 3.03448 11.6971 3.01732 11.7098L2.48496 12.1042L3.30242 12.7275C3.31587 12.7378 3.32382 12.7537 3.32395 12.7706C3.32408 12.7875 3.31637 12.8035 3.30308 12.814L2.68634 13.2993L3.51402 14.0545C3.52619 14.0657 3.53271 14.0817 3.53176 14.0981C3.5308 14.1146 3.52248 14.1297 3.50911 14.1394L3.01019 14.4986L4.20702 15.9035L9.88442 14.2427L13.8713 10.8699L3.46145 3.14368Z" fill="#763D16"/>
<path d="M27.8116 15.9661L22.0891 14.292L23.8179 16.9071L21.2356 21.9403L24.6494 21.8965H29.7264L27.8116 15.9661Z" fill="#F6851B"/>
<path fill-rule="evenodd" clip-rule="evenodd" d="M22.0451 14.2595C22.0587 14.2411 22.0824 14.2331 22.1044 14.2395L27.827 15.9136C27.8444 15.9187 27.8581 15.9321 27.8637 15.9493L29.7785 21.8797C29.7839 21.8964 29.781 21.9146 29.7707 21.9287C29.7604 21.9429 29.7439 21.9513 29.7264 21.9513H24.6495L21.2363 21.995C21.2171 21.9953 21.1992 21.9854 21.1891 21.9691C21.179 21.9528 21.1782 21.9324 21.1869 21.9153L23.7546 16.9106L22.0434 14.3222C22.0308 14.303 22.0314 14.278 22.0451 14.2595ZM22.2171 14.3865L23.8635 16.8769C23.8744 16.8934 23.8756 16.9145 23.8666 16.9321L21.3258 21.8844L24.6495 21.8418L29.6513 21.8418L27.7685 16.0105L22.2171 14.3865Z" fill="#F6851B"/>
<path d="M9.91084 14.292L4.18829 15.9661L2.28442 21.8965H7.36141L10.7643 21.9403L8.18204 16.9071L9.91084 14.292Z" fill="#F6851B"/>
<path fill-rule="evenodd" clip-rule="evenodd" d="M9.95489 14.2595C9.96852 14.278 9.96916 14.303 9.9565 14.3222L8.24534 16.9106L10.813 21.9153C10.8218 21.9324 10.8209 21.9528 10.8108 21.9691C10.8007 21.9854 10.7828 21.9953 10.7636 21.995L7.36143 21.9513H2.28445C2.26697 21.9513 2.25054 21.9429 2.24024 21.9288C2.22994 21.9147 2.22701 21.8965 2.23236 21.8798L4.13622 15.9494C4.14177 15.9321 4.15553 15.9187 4.17295 15.9136L9.8955 14.2395C9.91754 14.2331 9.94126 14.2411 9.95489 14.2595ZM4.23153 16.0105L2.35947 21.8418H7.36213L10.6742 21.8844L8.13339 16.9321C8.12437 16.9145 8.12553 16.8934 8.13642 16.8769L9.78284 14.3865L4.23153 16.0105Z" fill="#F6851B"/>
<path d="M17.6686 17.1806L18.0406 10.8672L19.6928 6.37012H12.3071L13.9593 10.8672L14.3314 17.1806L14.4736 19.172L14.4845 24.0739H17.5154L17.5264 19.172L17.6686 17.1806Z" fill="#F6851B"/>
<path fill-rule="evenodd" clip-rule="evenodd" d="M12.2623 6.33883C12.2725 6.32417 12.2893 6.31543 12.3072 6.31543H19.6928C19.7107 6.31543 19.7275 6.32417 19.7377 6.33883C19.7479 6.35349 19.7504 6.37222 19.7442 6.38901L18.0948 10.8785L17.7232 17.1838L17.7232 17.1845L17.5811 19.174L17.5701 24.0741C17.5701 24.1042 17.5456 24.1286 17.5154 24.1286H14.4846C14.4544 24.1286 14.4299 24.1042 14.4299 24.0741L14.4189 19.174L14.2768 17.1845L14.2768 17.1838L13.9052 10.8785L12.2558 6.38901C12.2496 6.37222 12.2521 6.35349 12.2623 6.33883ZM12.3855 6.42485L14.0107 10.8483C14.0126 10.8534 14.0137 10.8586 14.014 10.864L14.3859 17.1767L14.386 17.1774L14.5282 19.1681C14.5283 19.1694 14.5283 19.1706 14.5283 19.1719L14.5391 24.0192H17.4608L17.4717 19.1719C17.4717 19.1706 17.4717 19.1694 17.4718 19.1681L17.614 17.1774L17.614 17.1767L17.986 10.864C17.9863 10.8586 17.9874 10.8534 17.9893 10.8483L19.6145 6.42485H12.3855Z" fill="#F6851B"/>
</svg>
