<svg width="52" height="52" viewBox="0 0 52 52" fill="none" xmlns="http://www.w3.org/2000/svg">
<rect opacity="0.1" width="52" height="52" rx="8" fill="#E4BD58"/>
<path d="M35.3333 17.8333H16.6666V34.1667L27.5073 23.3237C27.726 23.105 28.0227 22.9821 28.3321 22.9821C28.6414 22.9821 28.9381 23.105 29.1569 23.3237L35.3333 29.5117V17.8333ZM14.3333 16.6585C14.3354 16.3521 14.458 16.0589 14.6745 15.8421C14.8911 15.6253 15.1842 15.5024 15.4906 15.5H36.5093C37.1486 15.5 37.6666 16.0192 37.6666 16.6585V35.3415C37.6645 35.6479 37.5419 35.9411 37.3253 36.1579C37.1088 36.3747 36.8156 36.4976 36.5093 36.5H15.4906C15.1835 36.4997 14.8892 36.3775 14.6722 36.1603C14.4551 35.943 14.3333 35.6486 14.3333 35.3415V16.6585ZM21.3333 24.8333C20.7144 24.8333 20.1209 24.5875 19.6833 24.1499C19.2458 23.7123 18.9999 23.1188 18.9999 22.5C18.9999 21.8812 19.2458 21.2877 19.6833 20.8501C20.1209 20.4125 20.7144 20.1667 21.3333 20.1667C21.9521 20.1667 22.5456 20.4125 22.9832 20.8501C23.4208 21.2877 23.6666 21.8812 23.6666 22.5C23.6666 23.1188 23.4208 23.7123 22.9832 24.1499C22.5456 24.5875 21.9521 24.8333 21.3333 24.8333Z" fill="#E4BD58"/>
</svg>
