<svg width="20" height="20" viewBox="0 0 20 20" fill="none" xmlns="http://www.w3.org/2000/svg">
  <circle cx="10" cy="10" r="10" fill="#8F5FE5"/>
  <path d="M13.6005 7.56482C13.3447 7.4186 13.0157 7.4186 12.7232 7.56482L10.6762 8.77108L9.28721 9.53871L7.27676 10.745C7.02089 10.8912 6.69191 10.8912 6.39948 10.745L4.82768 9.79458C4.5718 9.64837 4.38903 9.35594 4.38903 9.02696V7.19928C4.38903 6.90685 4.53525 6.61443 4.82768 6.43166L6.39948 5.51782C6.65535 5.37161 6.98434 5.37161 7.27676 5.51782L8.84857 6.46821C9.10444 6.61443 9.28721 6.90685 9.28721 7.23584V8.4421L10.6762 7.63792V6.3951C10.6762 6.10268 10.53 5.81025 10.2376 5.62748L7.31332 3.90947C7.05744 3.76325 6.72846 3.76325 6.43603 3.90947L3.43864 5.66403C3.14621 5.81025 3 6.10268 3 6.3951V9.83114C3 10.1236 3.14621 10.416 3.43864 10.5988L6.39948 12.3168C6.65535 12.463 6.98434 12.463 7.27676 12.3168L9.28721 11.1471L10.6762 10.3429L12.6867 9.17317C12.9426 9.02696 13.2715 9.02696 13.564 9.17317L15.1358 10.087C15.3916 10.2332 15.5744 10.5257 15.5744 10.8546V12.6823C15.5744 12.9747 15.4282 13.2672 15.1358 13.4499L13.6005 14.3638C13.3447 14.51 13.0157 14.51 12.7232 14.3638L11.1514 13.4499C10.8956 13.3037 10.7128 13.0113 10.7128 12.6823V11.5126L9.32376 12.3168V13.523C9.32376 13.8155 9.46998 14.1079 9.7624 14.2907L12.7232 16.0087C12.9791 16.1549 13.3081 16.1549 13.6005 16.0087L16.5614 14.2907C16.8172 14.1445 17 13.852 17 13.523V10.0505C17 9.75803 16.8538 9.4656 16.5614 9.28283L13.6005 7.56482Z" fill="#1C1B2E"/>
</svg>
