<svg width="28" height="28" viewBox="0 0 28 28" fill="none" xmlns="http://www.w3.org/2000/svg">
<path fill-rule="evenodd" clip-rule="evenodd" d="M28 14C28 21.732 21.732 28 14 28C6.26801 28 0 21.732 0 14C0 6.26801 6.26801 0 14 0C21.732 0 28 6.26801 28 14ZM14.5017 10.3354C13.14 10.9018 10.4185 12.0741 6.33722 13.8522C5.67449 14.1158 5.32731 14.3736 5.29571 14.6257C5.2423 15.0518 5.77585 15.2195 6.5024 15.448C6.60123 15.4791 6.70363 15.5113 6.80861 15.5454C7.52342 15.7778 8.48498 16.0496 8.98485 16.0604C9.43828 16.0702 9.94436 15.8832 10.5031 15.4996C14.3164 12.9255 16.2848 11.6245 16.4084 11.5964C16.4956 11.5766 16.6164 11.5517 16.6982 11.6245C16.7801 11.6973 16.7721 11.8351 16.7634 11.872C16.7105 12.0973 14.6162 14.0444 13.5323 15.0521C13.1944 15.3662 12.9548 15.589 12.9058 15.6399C12.796 15.7539 12.6842 15.8618 12.5767 15.9654C11.9126 16.6056 11.4146 17.0856 12.6042 17.8696C13.1759 18.2463 13.6334 18.5579 14.0898 18.8687C14.5882 19.2081 15.0854 19.5467 15.7286 19.9683C15.8924 20.0757 16.0489 20.1873 16.2014 20.296C16.7814 20.7095 17.3026 21.081 17.9464 21.0218C18.3205 20.9873 18.7069 20.6356 18.9031 19.5864C19.3669 17.107 20.2786 11.7349 20.4893 9.52115C20.5077 9.3272 20.4845 9.07898 20.4659 8.97002C20.4472 8.86105 20.4082 8.70581 20.2666 8.59088C20.0989 8.45477 19.8399 8.42607 19.7241 8.42811C19.1975 8.43739 18.3897 8.7183 14.5017 10.3354Z" fill="currentColor"/>
</svg>
