<svg width="52" height="52" viewBox="0 0 52 52" fill="none" xmlns="http://www.w3.org/2000/svg">
<rect opacity="0.1" width="52" height="52" rx="8" fill="#B068D3"/>
<path d="M17.6851 15.5H34.3148C34.4989 15.5 34.6803 15.5435 34.8444 15.6271C35.0084 15.7106 35.1504 15.8318 35.2586 15.9807L39.7188 22.1127C39.7981 22.2218 39.8371 22.355 39.8292 22.4896C39.8214 22.6243 39.7671 22.752 39.6756 22.8512L26.4281 37.2023C26.3735 37.2614 26.3073 37.3085 26.2336 37.3407C26.1599 37.3729 26.0804 37.3895 25.9999 37.3895C25.9195 37.3895 25.84 37.3729 25.7663 37.3407C25.6926 37.3085 25.6264 37.2614 25.5718 37.2023L12.3243 22.8523C12.2325 22.7531 12.1781 22.6251 12.1702 22.4902C12.1623 22.3553 12.2015 22.2219 12.2811 22.1127L16.7413 15.9807C16.8495 15.8318 16.9915 15.7106 17.1555 15.6271C17.3195 15.5435 17.501 15.5 17.6851 15.5Z" fill="#B068D3"/>
</svg>
