<svg width="600" height="288" viewBox="0 0 600 288" fill="none" xmlns="http://www.w3.org/2000/svg">
<rect width="600" height="288" rx="8" fill="#232234"/>
<path d="M252.974 212.319C252.577 209.831 250.628 208.376 248.168 208.376C245.156 208.376 242.935 210.632 242.935 214.354C242.935 218.075 245.145 220.331 248.168 220.331C250.724 220.331 252.594 218.729 252.974 216.427L251.202 216.422C250.901 217.91 249.651 218.729 248.179 218.729C246.185 218.729 244.679 217.2 244.679 214.354C244.679 211.53 246.179 209.979 248.185 209.979C249.668 209.979 250.912 210.814 251.202 212.319H252.974ZM258.615 220.348C261.075 220.348 262.683 218.547 262.683 215.848C262.683 213.132 261.075 211.331 258.615 211.331C256.155 211.331 254.547 213.132 254.547 215.848C254.547 218.547 256.155 220.348 258.615 220.348ZM258.621 218.922C257.013 218.922 256.263 217.518 256.263 215.842C256.263 214.172 257.013 212.751 258.621 212.751C260.217 212.751 260.967 214.172 260.967 215.842C260.967 217.518 260.217 218.922 258.621 218.922ZM264.58 220.172H266.278V214.791C266.278 213.615 267.102 212.797 268.068 212.797C269.011 212.797 269.665 213.422 269.665 214.371V220.172H271.358V214.609C271.358 213.558 272 212.797 273.108 212.797C274.006 212.797 274.744 213.297 274.744 214.479V220.172H276.443V214.319C276.443 212.325 275.33 211.331 273.75 211.331C272.494 211.331 271.551 211.933 271.131 212.865H271.04C270.659 211.91 269.858 211.331 268.693 211.331C267.54 211.331 266.682 211.905 266.318 212.865H266.21V211.444H264.58V220.172ZM278.72 220.172H280.419V211.444H278.72V220.172ZM279.578 210.098C280.163 210.098 280.652 209.643 280.652 209.087C280.652 208.53 280.163 208.069 279.578 208.069C278.987 208.069 278.504 208.53 278.504 209.087C278.504 209.643 278.987 210.098 279.578 210.098ZM284.403 214.99C284.403 213.598 285.256 212.802 286.438 212.802C287.591 212.802 288.29 213.558 288.29 214.825V220.172H289.989V214.621C289.989 212.462 288.801 211.331 287.017 211.331C285.705 211.331 284.847 211.939 284.443 212.865H284.335V211.444H282.705V220.172H284.403V214.99ZM295.926 223.626C298.148 223.626 299.864 222.609 299.864 220.365V211.444H298.199V212.859H298.074C297.773 212.319 297.17 211.331 295.545 211.331C293.438 211.331 291.886 212.996 291.886 215.774C291.886 218.558 293.472 220.041 295.534 220.041C297.136 220.041 297.756 219.138 298.062 218.581H298.17V220.297C298.17 221.666 297.233 222.257 295.943 222.257C294.528 222.257 293.977 221.547 293.676 221.047L292.216 221.649C292.676 222.717 293.841 223.626 295.926 223.626ZM295.909 218.632C294.392 218.632 293.602 217.467 293.602 215.751C293.602 214.075 294.375 212.774 295.909 212.774C297.392 212.774 298.188 213.984 298.188 215.751C298.188 217.552 297.375 218.632 295.909 218.632ZM312.859 211.592H314.553C314.501 209.729 312.854 208.376 310.49 208.376C308.155 208.376 306.365 209.712 306.365 211.717C306.365 213.337 307.524 214.285 309.393 214.791L310.768 215.166C312.013 215.496 312.973 215.905 312.973 216.939C312.973 218.075 311.888 218.825 310.393 218.825C309.041 218.825 307.916 218.223 307.814 216.956H306.053C306.166 219.064 307.797 220.365 310.405 220.365C313.138 220.365 314.712 218.927 314.712 216.956C314.712 214.859 312.842 214.047 311.365 213.683L310.229 213.388C309.32 213.155 308.109 212.729 308.115 211.615C308.115 210.626 309.018 209.893 310.45 209.893C311.786 209.893 312.734 210.518 312.859 211.592ZM320.349 220.348C322.81 220.348 324.418 218.547 324.418 215.848C324.418 213.132 322.81 211.331 320.349 211.331C317.889 211.331 316.281 213.132 316.281 215.848C316.281 218.547 317.889 220.348 320.349 220.348ZM320.355 218.922C318.747 218.922 317.997 217.518 317.997 215.842C317.997 214.172 318.747 212.751 320.355 212.751C321.952 212.751 322.702 214.172 322.702 215.842C322.702 217.518 321.952 218.922 320.355 218.922ZM329.99 220.348C332.45 220.348 334.058 218.547 334.058 215.848C334.058 213.132 332.45 211.331 329.99 211.331C327.53 211.331 325.922 213.132 325.922 215.848C325.922 218.547 327.53 220.348 329.99 220.348ZM329.996 218.922C328.388 218.922 327.638 217.518 327.638 215.842C327.638 214.172 328.388 212.751 329.996 212.751C331.592 212.751 332.342 214.172 332.342 215.842C332.342 217.518 331.592 218.922 329.996 218.922ZM337.653 214.99C337.653 213.598 338.506 212.802 339.688 212.802C340.841 212.802 341.54 213.558 341.54 214.825V220.172H343.239V214.621C343.239 212.462 342.051 211.331 340.267 211.331C338.955 211.331 338.097 211.939 337.693 212.865H337.585V211.444H335.955V220.172H337.653V214.99ZM346.636 220.28C347.256 220.28 347.773 219.774 347.773 219.143C347.773 218.524 347.256 218.013 346.636 218.013C346.011 218.013 345.5 218.524 345.5 219.143C345.5 219.774 346.011 220.28 346.636 220.28ZM351.168 220.28C351.787 220.28 352.304 219.774 352.304 219.143C352.304 218.524 351.787 218.013 351.168 218.013C350.543 218.013 350.031 218.524 350.031 219.143C350.031 219.774 350.543 220.28 351.168 220.28ZM355.699 220.28C356.318 220.28 356.835 219.774 356.835 219.143C356.835 218.524 356.318 218.013 355.699 218.013C355.074 218.013 354.562 218.524 354.562 219.143C354.562 219.774 355.074 220.28 355.699 220.28Z" fill="#7B7787"/>
<path d="M299.814 138.026C252.254 138.021 214.999 129.359 215 118.305C215.001 111.678 228.202 105.766 251.219 102.086C251.301 102.073 251.385 102.076 251.467 102.095C251.548 102.114 251.625 102.149 251.692 102.198C251.76 102.247 251.817 102.309 251.861 102.38C251.905 102.452 251.934 102.531 251.947 102.614C251.96 102.697 251.957 102.781 251.937 102.863C251.918 102.944 251.882 103.021 251.833 103.089C251.784 103.156 251.722 103.214 251.651 103.257C251.58 103.301 251.5 103.33 251.418 103.342C229.736 106.809 216.266 112.543 216.266 118.305C216.265 128.301 254.525 136.75 299.814 136.754C345.103 136.758 383.364 128.317 383.365 118.321C383.366 112.534 369.811 106.784 347.991 103.315C347.909 103.302 347.83 103.273 347.759 103.23C347.688 103.186 347.626 103.129 347.577 103.061C347.528 102.994 347.492 102.917 347.473 102.836C347.453 102.754 347.45 102.67 347.463 102.587C347.476 102.505 347.505 102.425 347.549 102.354C347.592 102.283 347.649 102.221 347.717 102.172C347.784 102.123 347.861 102.087 347.942 102.068C348.023 102.049 348.107 102.045 348.189 102.059C371.349 105.741 384.632 111.668 384.631 118.321C384.63 129.375 347.374 138.03 299.814 138.026Z" fill="#373647"/>
<path fill-rule="evenodd" clip-rule="evenodd" d="M347.712 105.467C349.108 112.935 348.755 120.627 346.68 127.934C315.637 132.166 284.179 132.334 253.093 128.433C250.941 121.149 250.506 113.461 251.823 105.979C253.139 98.4959 256.172 91.424 260.679 85.3223C265.187 79.2206 271.046 74.2567 277.794 70.8234C284.541 67.3901 291.992 65.5817 299.555 65.5413C307.118 65.501 314.587 67.2297 321.371 70.5907C328.154 73.9518 334.066 78.8528 338.638 84.9061C343.21 90.9593 346.316 97.9985 347.712 105.467ZM275.606 159.535C268.2 155.276 262.038 149.138 257.736 141.734C285.811 143.217 313.946 143.149 342.013 141.529C337.747 148.953 331.614 155.121 324.229 159.417C316.845 163.712 308.466 165.984 299.933 166.005C291.4 166.025 283.011 163.795 275.606 159.535Z" fill="url(#paint0_linear)"/>
<path opacity="0.3" d="M311.212 92.8775C314.359 92.8775 316.909 90.3152 316.909 87.1545C316.909 83.9938 314.359 81.4315 311.212 81.4315C308.066 81.4315 305.516 83.9938 305.516 87.1545C305.516 90.3152 308.066 92.8775 311.212 92.8775Z" fill="white"/>
<path opacity="0.3" d="M281.461 120.219C286.704 120.219 290.955 115.949 290.955 110.681C290.955 105.413 286.704 101.142 281.461 101.142C276.217 101.142 271.966 105.413 271.966 110.681C271.966 115.949 276.217 120.219 281.461 120.219Z" fill="white"/>
<path opacity="0.3" d="M299.819 161.554C302.965 161.554 305.516 158.991 305.516 155.831C305.516 152.67 302.965 150.108 299.819 150.108C296.673 150.108 294.123 152.67 294.123 155.831C294.123 158.991 296.673 161.554 299.819 161.554Z" fill="white"/>
<defs>
<linearGradient id="paint0_linear" x1="300.085" y1="58.4748" x2="298.188" y2="203.775" gradientUnits="userSpaceOnUse">
<stop offset="0.1224" stop-color="#693896"/>
<stop offset="0.8163" stop-color="#AB8ABF"/>
</linearGradient>
</defs>
</svg>
