<svg width="159" height="40" viewBox="0 0 159 40" fill="none" xmlns="http://www.w3.org/2000/svg">
<path d="M71.6101 23.8278L71.8384 23.7846L72.1532 23.8278L72.3815 23.8124L72.6253 23.8556L72.9679 23.797H73.9986L74.1992 23.8402L74.4275 23.8124L74.6435 23.8834L74.7731 24.1549V24.5838L74.6435 24.7998L74.4152 24.9294L74.1992 24.8862H73.0419L72.8259 24.9017L72.5976 24.8862L72.3538 24.9294L71.681 24.8708L70.5361 24.914L69.8788 24.8708L69.6505 24.914L69.1629 24.8708L68.9345 24.7566L68.8481 24.5715L68.8636 24.3431L68.8358 24.087L68.8636 23.8309L68.8358 23.6581L68.8512 23.402L68.8234 17.9372L68.8512 17.6934L68.8234 17.3941L68.8512 17.1658L68.8358 16.3512L68.8636 16.1506L68.8049 15.6507L68.8481 15.194L68.9469 15.0089L69.203 14.8669L69.4468 14.8824H69.6628L69.919 14.9965L70.0177 15.2249L70.0609 15.4532L70.0177 15.6692L70.0455 16.8418L70.0177 17.3293L70.0331 17.5021L70.0486 21.8931L70.0054 22.1091L70.0486 22.3097V23.2693L70.064 23.4421L70.1782 23.6982L70.3942 23.8556L71.6101 23.8278Z" fill="white"/>
<path d="M88.2622 20.4678L88.2345 20.9399L88.0061 21.8409L87.9197 22.0106L87.8333 22.239L87.7037 22.4673L87.5741 22.6679L87.1883 23.2542L87.0309 23.4116L86.9013 23.6276L86.5434 23.8713L86.3705 24.0719L85.5404 24.544L84.7103 24.8588L84.4943 24.902L83.9944 24.9606H83.7938L83.5377 25.0192L83.2229 25.0316L82.8649 24.9729H82.6489L82.4051 25.0007L81.9484 24.8711L81.72 24.8433L81.2633 24.6705L81.0627 24.6273L80.8621 24.4854L80.6338 24.3866L80.461 24.3002L80.245 24.1274L80.0721 23.9855L79.887 23.8991L79.6308 23.6708L79.2173 23.2418L78.8316 22.6679L78.5446 22.0662L78.486 21.8224L78.3718 21.5786L78.273 21.1497L78.2576 20.9214L78.2144 20.7054L78.199 20.4462L78.1558 20.2179L78.1835 19.2736L78.2545 18.8293V18.5732L78.3131 18.3294L78.7421 17.2864L78.884 17.1013L79.0692 16.7001L79.2544 16.5705L79.5537 16.2126L79.7265 16.0552L79.8839 15.8547L80.2573 15.5553L80.4579 15.4412L80.6585 15.3548L80.8591 15.2252L81.5318 14.9968L81.7601 14.9536L81.9607 14.8827L82.4329 14.8117H82.6612L82.8896 14.7407H83.5901L83.7907 14.7839L84.0191 14.7562L84.2474 14.8426L84.4758 14.858L85.1485 15.0586L85.3645 15.1727L85.5651 15.2591L85.9786 15.4751L86.1514 15.6325L86.352 15.7189L87.0371 16.3329L87.3241 16.6755L87.4383 16.9038L87.5802 17.0889L87.6944 17.3173L87.8086 17.4747L87.9228 17.7184L87.9814 17.9344L88.0678 18.135L88.0956 18.3942L88.2098 18.8231L88.2375 19.0792L88.2962 19.2798L88.3116 19.5513L88.2838 19.8661L88.2993 20.2364L88.2622 20.4678ZM79.3778 20.4524L79.5938 21.3966L79.6926 21.5817L79.7635 21.8255L80.0505 22.3408L80.4085 22.7697L81.1244 23.356L81.5102 23.572L81.9546 23.7016L82.1829 23.8312L82.4267 23.8744L83.5839 23.8898L84.4573 23.7479L84.6856 23.6769L84.914 23.5196L85.3429 23.3622L85.6855 23.0474L85.8861 22.9333L86.1854 22.634L86.3273 22.418L86.4415 22.1742L86.6699 21.8162L87.0001 20.9307V20.7023L87.0865 20.4462L87.1019 20.2456L87.0741 19.502L87.0464 19.3292V19.0854L86.9877 18.8416L86.9445 18.6411L86.8304 18.3849L86.7872 18.1689L86.6575 17.9684L86.457 17.5395L85.8552 16.8236L85.5127 16.552L85.3553 16.4101L84.9418 16.1941L84.7134 16.1231L84.4974 16.0089L84.0407 15.9225L83.8123 15.8516L83.5963 15.8948L82.9081 15.8084L82.652 15.8361L81.5225 16.1787L81.1214 16.407L80.5505 16.8513L80.4085 17.0365L80.2943 17.1661L79.8654 17.7369L79.5938 18.3819L79.4087 19.0391L79.35 19.5267L79.3655 20.2549L79.3778 20.4524Z" fill="white"/>
<path d="M98.048 18.1504L98.2763 17.7492L98.3195 17.5054L98.9213 15.9904L99.0355 15.8052L99.2083 15.4319L99.2669 15.2159L99.4829 14.9443L99.8409 14.8733L100.14 14.8579L100.569 14.9011L100.628 15.1449L100.569 15.3887L100.455 15.5892L100.396 15.7744L100.282 15.9595L100.18 16.1878L100.137 16.4038L99.6928 17.4622L99.5632 17.6628L99.5045 17.8788L99.3039 18.3077L99.2453 18.5237L99.0293 18.9249L98.8719 19.397L98.6004 19.9987L98.4275 20.2702L98.1714 21.0725L98.0295 21.2577L97.8134 21.9303L97.3845 22.8314L97.1993 23.3745L97.1006 23.5473L97.0296 23.791L96.8013 24.1922L96.6439 24.6365L96.4279 24.8217L96.1131 24.7939L95.8693 24.6211L95.7983 24.365L95.5977 24.007L95.0824 22.7357L94.996 22.4919L94.78 22.0908L94.5238 21.4459L94.4806 21.2453L93.7523 19.6006L93.6382 19.4001L93.4808 18.9434L93.3666 18.7706L92.9376 17.6412L92.8358 17.4684L92.7371 17.2678L92.6939 17.0518L92.5642 16.8235L92.5056 16.6075L92.305 16.2218L92.1476 15.7651L91.9471 15.3917L91.8884 15.077L91.9471 14.9042L92.1631 14.861L92.3637 14.9042L92.808 14.861L93.0642 14.9752L93.237 15.1757L93.2956 15.4041L93.3944 15.5892L93.5085 15.8453L93.5672 16.0613L93.6659 16.2619L93.7369 16.447L93.8357 16.6476L93.9221 16.9037L94.0208 17.0765L94.0918 17.2925L94.7059 18.7798L94.7923 19.11L94.9343 19.3816L95.178 20.0666L95.2768 20.2085L95.3632 20.4369L95.4342 20.6652L95.5206 20.838L95.5638 21.0386L96.0791 22.313L96.1501 22.5413L96.2365 22.7573L96.3229 22.7141L96.4093 22.529L97.1253 20.4986L97.3259 20.082L97.4678 19.6531L97.7116 19.1254L97.8104 18.7675L98.048 18.1504Z" fill="white"/>
<path d="M110.194 15.9041L109.938 15.9319L109.753 15.9473L109.497 15.9041L108.309 15.8887L107.636 15.9473L106.948 15.8763L106.72 15.9349L106.476 16.0337L106.377 16.2342L106.349 17.2217L106.392 17.5642L106.365 17.8944L106.392 18.1227L106.349 18.5948L106.365 18.8232L106.467 19.0793L106.695 19.1934L107.568 19.2212L107.824 19.1934L108.025 19.2366L109.17 19.178L109.398 19.2058L109.741 19.1904L110.04 19.2181L110.528 19.2027L110.728 19.3045L110.827 19.5205V19.7211L110.855 19.9217L110.725 20.1377L110.509 20.2241L109.577 20.2827L109.361 20.2395L109.161 20.2549L108.932 20.2395L108.46 20.2827L108.275 20.2241L107.618 20.2518L106.803 20.2086L106.488 20.3228L106.374 20.6653L106.389 21.0078L106.331 21.4367L106.358 21.6929L106.343 21.9089L106.371 22.1526L106.343 22.4519L106.386 22.8099L106.358 23.0105L106.386 23.4394L106.473 23.6831L106.701 23.7973L107.145 23.7541L107.374 23.7819H107.59L107.846 23.7541H108.29L108.978 23.7973L109.423 23.7819L109.694 23.7973L109.895 23.7695L110.123 23.7973H110.379L110.58 23.7695L110.796 23.7973L111.024 23.8961L111.182 24.0966L111.166 24.541L111.024 24.7847L110.796 24.8711H110.324L110.108 24.8989L109.664 24.8711L109.42 24.8866L108.948 24.8588L108.732 24.8866L108.503 24.8588L108.287 24.8866L108.043 24.8711L107.099 24.8989L106.899 24.8835H105.754L105.525 24.9113L105.269 24.7817L105.167 24.5255L105.14 24.3095L105.183 24.109V23.8652L105.155 23.6492L105.17 19.0731L105.127 18.7306L105.186 18.0579L105.158 17.7L105.173 17.2278L105.146 16.8267V16.5829L105.189 16.3669L105.146 15.3085L105.275 14.9506L105.476 14.8364L105.747 14.8796H106.204L106.649 14.8364L106.905 14.8796L109.207 14.8642L109.451 14.8796L109.707 14.8642L109.951 14.8796L110.167 14.8519L110.383 14.8796L110.626 14.8364L110.87 14.966L111 15.182V15.398L111.015 15.5986L110.873 15.8146L110.645 15.901H110.194V15.9041Z" fill="white"/>
<path d="M118.949 23.8278L119.177 23.7846L119.492 23.8278L119.72 23.8124L119.964 23.8556L120.307 23.797H121.337L121.538 23.8402L121.766 23.8124L121.982 23.8834L122.112 24.1549V24.5838L121.982 24.7998L121.754 24.9294L121.538 24.8862H120.378L120.162 24.9017L119.933 24.8862L119.689 24.9294L119.017 24.8708L117.872 24.914L117.215 24.8708L116.986 24.914L116.499 24.8708L116.27 24.7566L116.184 24.5715L116.199 24.3431L116.171 24.087L116.199 23.8309L116.171 23.6581L116.187 23.402L116.159 17.9372L116.187 17.6934L116.159 17.3941L116.187 17.1658L116.171 16.3512L116.199 16.1506L116.141 15.6507L116.184 15.194L116.286 15.0089L116.545 14.8669L116.789 14.8824H117.005L117.261 14.9965L117.363 15.2249L117.406 15.4532L117.363 15.6692L117.39 16.8418L117.363 17.3293L117.378 17.5021L117.394 21.8931L117.35 22.1091L117.394 22.3097V23.2693L117.409 23.4421L117.523 23.6982L117.739 23.8556L118.949 23.8278Z" fill="white"/>
<path d="M127.488 22.899L127.43 23.1428L127.3 23.328L127.229 23.5563L126.714 24.5561L126.513 24.7566L126.226 24.8986L125.97 24.8832L125.698 24.8986L125.47 24.8708L125.384 24.698L125.498 24.4265L125.556 24.1827L125.785 23.8248L125.856 23.581L125.97 23.3526L126.084 23.1953L126.155 22.9669L126.726 21.7357L126.97 21.3222L127.028 21.1371L127.143 20.9211L127.229 20.6928L127.359 20.4922L128.331 18.4618L128.389 18.2057L128.476 18.0051L128.605 17.8045L128.834 17.2769L129.006 17.0053L129.065 16.7893L129.852 15.1447L130.096 14.9441H130.454L130.698 15.1724L130.914 15.5581L131.071 15.9593L131.299 16.3882L131.358 16.561L131.488 16.777L131.645 17.2059L133.419 20.881L133.49 21.1248L134.564 23.3557L134.651 23.6273L134.938 24.1704L135.138 24.6579L135.067 24.8739L134.811 24.9171L134.296 24.8893L134.024 24.8184L133.808 24.6178L132.907 22.7016L132.691 22.4856L132.447 22.4146L132.191 22.3992L131.975 22.4578L131.759 22.3992H130.83L130.63 22.4424L130.414 22.3992L129.725 22.3837L129.497 22.4269L129.019 22.3961L128.574 22.4238L128.232 22.4084L127.803 22.538L127.587 22.7232L127.488 22.899ZM131.309 21.4117L131.765 21.3408L132.009 21.384L132.194 21.2544L132.21 21.0538L132.111 20.881L132.052 20.6094L131.753 19.9954L131.682 19.7948L131.552 19.5943L131.065 18.5204L131.009 18.2489L130.867 18.0483L130.781 17.8755L130.722 17.6904L130.423 17.0331L130.266 16.9189L130.136 17.0485L129.908 17.4775L129.75 17.8909L129.651 18.0637L129.25 18.9648L129.195 19.1653L129.081 19.3381L128.608 20.4243L128.494 20.6249L128.337 21.0816V21.2976L128.608 21.384L131.309 21.4117Z" fill="white"/>
<path d="M138.634 18.8227L138.692 18.6221L138.736 18.366L139.007 17.5082L139.495 16.7213L139.967 16.1628L140.309 15.8913L140.451 15.7185L140.636 15.5765L140.865 15.4778L141.223 15.234L141.439 15.1754L141.896 14.9902L142.584 14.8051L143.028 14.7341L143.929 14.7496L144.374 14.8205L144.617 14.8915L144.846 14.8761L145.046 14.947L145.262 14.9748L145.892 15.2896L146.077 15.3605L146.262 15.5025L146.447 15.6166L146.62 15.7586L146.805 15.8882L147.135 16.2029L147.422 16.5609L147.537 16.746L147.753 17.1749L147.882 17.3169L147.953 17.5606L147.925 17.7766L147.725 17.863H147.253L146.953 17.7766L146.222 16.8602L145.679 16.3726L145.065 16.0733L144.809 15.9869L144.195 15.8573L143.966 15.8851L143.58 15.8265H143.281L143.053 15.8419L142.809 15.9129L142.565 15.9283L142.349 16.027L142.105 16.0857L141.905 16.1998L141.72 16.2708L141.491 16.4282L141.306 16.53L141.121 16.6596L140.791 16.9744L140.661 17.1904L140.488 17.3632L140.346 17.5792L140.059 18.1809L140.001 18.4246L139.914 18.6252L139.85 18.8227L139.779 19.3226L139.751 20.2082L139.967 21.3653L140.081 21.5937L140.14 21.7942L140.812 22.7539L140.985 22.8958L141.115 23.081L141.331 23.1674L141.516 23.3247L142.004 23.624L143.019 23.8956L144.29 23.837L144.62 23.766L144.806 23.695L145.034 23.6518L145.219 23.5808L145.849 23.2383L146.179 22.8958L146.336 22.7817L146.45 22.5657L146.592 22.4083L146.821 21.9516L147.021 21.7819L147.293 21.6955L147.75 21.6801L147.978 21.7942L147.993 22.0102L147.608 22.8989L147.351 23.2723L146.895 23.7876L146.151 24.3739L145.778 24.5899L145.089 24.8059L144.873 24.8182L144.645 24.8892L144.401 24.9324L144.173 24.991L143.602 25.0342L143.374 25.0064H143L142.8 24.9632L142.584 24.9478L141.883 24.7472L141.482 24.5621L141.238 24.4911L141.038 24.3615L140.822 24.2906L140.448 24.0344L140.306 23.8771L139.948 23.5469L139.819 23.3618L139.634 23.1921L139.504 23.0192L139.39 22.8773L139.232 22.6335L139.146 22.4484L139.016 22.2478L138.859 21.8035L138.773 21.6029L138.615 20.9457V20.7019L138.544 20.2143V19.2979L138.634 18.8227Z" fill="white"/>
<path d="M157.918 15.9041L157.662 15.9319L157.476 15.9473L157.22 15.9041L156.032 15.8887L155.359 15.9473L154.674 15.8763L154.446 15.9349L154.202 16.0337L154.103 16.2342L154.076 17.2217L154.119 17.5642L154.091 17.8944L154.119 18.1227L154.076 18.5948L154.091 18.8232L154.19 19.0793L154.418 19.1934L155.292 19.2212L155.548 19.1934L155.748 19.2366L156.893 19.178L157.121 19.2058L157.464 19.1904L157.763 19.2181L158.251 19.2027L158.452 19.3045L158.55 19.5205V19.7211L158.578 19.9217L158.448 20.1377L158.232 20.2241L157.304 20.2827L157.088 20.2395L156.887 20.2549L156.659 20.2395L156.186 20.2827L156.001 20.2241L155.344 20.2518L154.529 20.2086L154.215 20.3228L154.1 20.6653L154.116 21.0078L154.057 21.4367L154.085 21.6929L154.069 21.9089L154.097 22.1526L154.069 22.4519L154.113 22.8099L154.085 23.0105L154.113 23.4394L154.199 23.6831L154.427 23.7973L154.872 23.7541L155.1 23.7819H155.316L155.572 23.7541H156.017L156.705 23.7973L157.149 23.7819L157.421 23.7973L157.621 23.7695L157.85 23.7973H158.106L158.306 23.7695L158.522 23.7973L158.751 23.8961L158.908 24.0966L158.893 24.541L158.751 24.7847L158.522 24.8711H158.05L157.834 24.8989L157.39 24.8711L157.146 24.8866L156.674 24.8588L156.458 24.8866L156.23 24.8588L156.014 24.8866L155.77 24.8711L154.826 24.8989L154.625 24.8835H153.48L153.252 24.9113L152.996 24.7817L152.897 24.5255L152.869 24.3095L152.912 24.109V23.8652L152.884 23.6492L152.9 19.0731L152.857 18.7306L152.915 18.0579L152.888 17.7L152.903 17.2278L152.875 16.8267V16.5829L152.918 16.3669L152.875 15.3085L153.005 14.9506L153.205 14.8364L153.477 14.8796H153.934L154.378 14.8364L154.634 14.8796L156.936 14.8642L157.18 14.8796L157.436 14.8642L157.68 14.8796L157.896 14.8519L158.112 14.8796L158.356 14.8364L158.6 14.966L158.729 15.182V15.398L158.745 15.5986L158.603 15.8146L158.374 15.901H157.918V15.9041Z" fill="white"/>
<path d="M59.4908 14.7497L41.2251 0.89794C39.6482 -0.299313 36.9357 -0.299313 35.3557 0.89794L30.3965 4.62856L25.4405 0.89794C23.8605 -0.299313 21.1572 -0.299313 19.5803 0.89794L1.30535 14.7497C0.469063 15.3853 0 16.2833 0 17.2152C0 18.1501 0.469063 19.0542 1.30535 19.6775L12.0259 27.7837L13.2356 28.6971L18.2595 32.5017L19.46 33.4089L26.9218 39.0496C27.6747 39.6297 28.6499 39.9352 29.6775 39.9661C29.9151 39.9877 30.1558 40 30.4058 40C30.6588 40 30.9057 39.9877 31.1464 39.9661C32.171 39.9352 33.1338 39.6266 33.8713 39.0527L41.3331 33.4089L42.5366 32.5017L47.5636 28.7001L48.7733 27.7868L59.4877 19.6806C60.3209 19.0573 60.8054 18.1532 60.8054 17.2182C60.8085 16.2833 60.324 15.3853 59.4908 14.7497ZM33.9053 27.7806L30.4027 30.4281L26.894 27.7806L25.6936 26.8672L20.6727 23.0687L19.463 22.1554L14.5194 18.4124C14.038 18.0545 13.7726 17.5916 13.7726 17.1041C13.7726 16.6258 14.038 16.1629 14.5101 15.8019L20.3487 11.3554C21.401 10.55 23.3884 10.55 24.453 11.3554L27.0329 13.321C27.6223 13.7684 28.3567 14.0585 29.156 14.1757L29.0912 14.1788C29.0912 14.1788 30.1589 14.3732 31.7883 14.1109C31.85 14.1017 31.9087 14.0924 31.9704 14.0801C31.992 14.077 32.0105 14.0739 32.0321 14.0708H32.0136C32.6585 13.9412 33.2634 13.6974 33.7602 13.321L36.3493 11.3554C37.4047 10.55 39.3921 10.55 40.4444 11.3647L46.283 15.8019C46.7675 16.1629 47.0298 16.6258 47.0298 17.1041C47.0298 17.5885 46.7675 18.0514 46.283 18.4124L41.3393 22.1554L40.1296 23.0687L35.1057 26.8734L33.9053 27.7806ZM35.2384 35.7942L32.2419 38.4263L28.4401 38.4294L25.7738 35.8004L30.4243 32.2549L30.4799 32.295L35.2384 35.7942ZM34.2787 37.8153L34.4114 37.7073C34.3712 37.7505 34.328 37.7906 34.2848 37.8307C34.2817 37.8277 34.2787 37.8215 34.2787 37.8153ZM32.2203 12.5064L28.4154 12.5094L25.7892 9.96991L30.3904 6.46455L35.0501 10.0656L32.2203 12.5064ZM2.18176 18.5235C1.7127 18.1625 1.44422 17.6996 1.44422 17.2152C1.44422 16.7369 1.70961 16.274 2.19102 15.913L20.4567 2.06125C20.9844 1.65394 21.7436 1.42251 22.5212 1.42251C23.2896 1.42251 24.0364 1.65085 24.5641 2.06125L29.1899 5.53884L29.1961 5.54193L23.9685 9.52557C22.4657 9.08123 20.648 9.30649 19.4723 10.2044L13.6306 14.6355C12.7974 15.2742 12.3129 16.1722 12.3129 17.1041C12.3129 18.039 12.7974 18.9431 13.6306 19.5757L18.2534 23.0749L13.2294 26.8765L2.18176 18.5235ZM14.436 27.7899L19.463 23.9883L24.487 27.7899L19.46 31.5945L14.436 27.7899ZM25.6874 28.6971L29.1961 31.3477L29.1992 31.3508L24.1938 35.1678L20.6635 32.4986L25.6874 28.6971ZM36.7196 35.0814L31.6278 31.3323L35.1119 28.6971L40.1389 32.4956L36.7196 35.0814ZM41.3362 31.5884L36.3123 27.7899L41.3393 23.9852L46.3663 27.7837L41.3362 31.5884ZM58.6144 18.5235L47.5729 26.8703L42.5459 23.0656L47.1656 19.5726C47.9988 18.9401 48.4833 18.039 48.4833 17.101C48.4833 16.1691 48.0111 15.2712 47.1748 14.6324L41.3362 10.2013C40.5462 9.59654 39.5032 9.26637 38.3953 9.26637C37.8182 9.26637 37.2628 9.35894 36.7474 9.53174L31.5908 5.5481L31.6062 5.53576L36.2321 2.05508C37.2936 1.25588 39.281 1.25588 40.3487 2.05508L58.6144 15.9068C59.0866 16.2678 59.3458 16.7307 59.3458 17.209C59.3458 17.6996 59.0866 18.1625 58.6144 18.5235Z" fill="url(#paint0_linear)"/>
<defs>
<linearGradient id="paint0_linear" x1="30.5718" y1="-2.81327" x2="30.0897" y2="55.044" gradientUnits="userSpaceOnUse">
<stop offset="0.1224" stop-color="#693896"/>
<stop offset="0.8163" stop-color="#AB8ABF"/>
</linearGradient>
</defs>
</svg>
